<svg width="400" height="400" xmlns="http://www.w3.org/2000/svg">

 <g>
  <title>background</title>
  <rect fill="none" id="canvas_background" height="402" width="402" y="-1" x="-1"/>
 </g>
 <g>
  <title>Layer 1</title>
  <ellipse stroke="#000" opacity="0.4" ry="194" rx="197" id="svg_32" cy="199.000001" cx="199.999996" stroke-width="0" fill="#2ceaea"/>
  <path id="svg_1" fill="#C8546F" d="m275.75601,255.871163l0,-122.429l-153.036,0l0,122.429c0,0 45.552,-20.616 91.822,0s61.214,0 61.214,0z"/>
  <g id="svg_2">
   <rect id="svg_3" fill="#FEB860" height="15.304" width="61.21" y="207.586001" x="39.103509"/>
   <rect id="svg_4" fill="#FEB860" height="15.304" width="61.21" y="207.586001" x="294.162509"/>
  </g>
  <g id="svg_5">
   <rect id="svg_6" fill="#9B4573" height="40.809" width="15.304" y="112.833511" x="336.969509"/>
   <rect id="svg_7" fill="#9B4573" height="40.809" width="15.304" y="112.833511" x="46.202509"/>
  </g>
  <g id="svg_8">
   <path id="svg_9" fill="#FEC986" d="m162.428498,136.440002l0,0c-11.27,0 -20.405,-9.135 -20.405,-20.404l0,0l40.81,0l0,0c0,11.269 -9.136,20.404 -20.405,20.404z"/>
   <path id="svg_10" fill="#FEC986" d="m244.047498,136.440002l0,0c-11.269,0 -20.405,-9.135 -20.405,-20.404l0,0l40.81,0l0,0c0,11.269 -9.136,20.404 -20.405,20.404z"/>
  </g>
  <g id="svg_11">
   <rect id="svg_12" fill="#1D1D1B" height="9.994" width="66.32" y="151.8915" x="138.782009"/>
   <rect id="svg_13" fill="#1D1D1B" height="9.994" width="15.304" y="151.8915" x="215.302009"/>
   <path id="svg_14" fill="#1D1D1B" d="m358.033009,284.0235l0,-55.824l5.101,0l0,-25.298l-5.101,0l0,-96.921l-25.298,0l0,50.804l15.304,0l0,46.119l-56.113,0l0,25.298l5.101,0l0,55.824l-35.916,0l0,-11.795c13.488,-2.497 19.058,-9.838 19.454,-10.385l0.951,-1.312l0,-129.048l-20.529,0c2.307,-3.013 3.956,-6.554 4.729,-10.41l5.701,0l0,-9.994l-61.214,0l0,9.994l5.701,0c0.773,3.856 2.422,7.397 4.729,10.41l-41.266,0c2.307,-3.013 3.956,-6.554 4.729,-10.41l5.701,0l0,-9.994l-61.213,0l0,9.994l5.701,0c0.773,3.856 2.422,7.397 4.729,10.41l-20.529,0l0,127.426l0.005,7.724l7.047,-3.168c0.146,-0.066 5.142,-2.26 13.352,-4.424l0,24.981l-35.915,0l0,-55.824l5.101,0l0,-25.298l-56.114,0l0,-46.119l15.304,0l0,-50.803l-25.298,0l0,96.923l-5.101,0l0,25.298l5.101,0l0,55.824l-5.205,0l0,9.994l326.476,0l0,-9.994l-5.205,-0.002l0,0zm-15.303,-137.234l0,-30.815l5.31,0l0,30.815l-5.31,0zm-290.768,-30.815l5.31,0l0,30.815l-5.31,0l0,-30.815zm301.178,96.923l0,5.206l-5.101,0l0,0.104l-41.018,0l0,-0.104l-5.101,0l0,-5.206l51.22,0zm-46.119,15.303l41.018,0l0,55.824l-41.018,0l0,-55.824zm-80.782,-107.125l29.143,0c-2.081,6.049 -7.825,10.41 -14.572,10.41s-12.491,-4.361 -14.571,-10.41zm-81.619,0l29.143,0c-2.081,6.049 -7.824,10.41 -14.571,10.41c-6.747,0 -12.491,-4.361 -14.572,-10.41zm-16.14,20.404l143.042,0l0,115.466c-1.498,1.36 -4.767,3.731 -10.437,5.096c-3.68,0.887 -8.708,1.401 -15.278,0.684l0,-34.422l-9.994,0l0,32.586c-1.696,-0.427 -3.465,-0.926 -5.309,-1.506l0,-10.675l-9.994,0l0,7.001c-1.04,-0.433 -2.093,-0.883 -3.172,-1.363c-14.904,-6.641 -29.646,-9.215 -42.948,-9.597l0,-11.344l-9.994,0l0,11.451c-1.808,0.091 -3.58,0.217 -5.309,0.375l0,-22.029l-9.994,0l0,23.323c-8.659,1.449 -15.765,3.493 -20.613,5.134l0,-110.18zm20.404,115.348c16.807,-3.04 40.618,-3.942 64.386,6.649c15.706,6.998 28.147,9.474 37.846,9.573l0,10.976l-102.232,0l0,-27.198zm-50.804,-38.725l-5.101,0l0,0.104l-41.018,0l0,-0.104l-5.101,0l0,-5.206l51.22,0l0,5.206l0,0zm-46.118,10.098l41.018,0l0,55.824l-41.018,0l0,-55.824z"/>
  </g>
  <g id="svg_15"/>
  <g id="svg_16"/>
  <g id="svg_17"/>
  <g id="svg_18"/>
  <g id="svg_19"/>
  <g id="svg_20"/>
  <g id="svg_21"/>
  <g id="svg_22"/>
  <g id="svg_23"/>
  <g id="svg_24"/>
  <g id="svg_25"/>
  <g id="svg_26"/>
  <g id="svg_27"/>
  <g id="svg_28"/>
  <g id="svg_29"/>
 </g>
</svg>